<?xml version="1.0" encoding="UTF-8"?>
<!DOCTYPE svg PUBLIC "-//W3C//DTD SVG 1.1//EN" "http://www.w3.org/Graphics/SVG/1.1/DTD/svg11.dtd">
<svg xmlns="http://www.w3.org/2000/svg" xml:space="preserve" width="256px" height="256px" style="shape-rendering:geometricPrecision; text-rendering:geometricPrecision; image-rendering:optimizeQuality; fill-rule:evenodd; clip-rule:evenodd"
viewBox="0 0 256 256"
 xmlns:xlink="http://www.w3.org/1999/xlink">
 <defs>
  <style type="text/css">
   <![CDATA[
    .fil1 {fill:white}
    .fil0 {fill:url(#id0)}
   ]]>
  </style>
  <linearGradient id="id0" gradientUnits="userSpaceOnUse" x1="-1.02246" y1="1.03885" x2="257.022" y2="254.961">
   <stop offset="0" style="stop-color:#AD4499"/>
   <stop offset="1" style="stop-color:#AD4369"/>
  </linearGradient>
 </defs>
 <g id="Wfsm_Logo">
  <rect class="fil0" width="256" height="256"/>
  <path class="fil1" d="M128 169.505c-14.7735,0.01024 -29.5475,0.02048 -44.3192,-0.027904 -2.64806,0 -6.41408,-1.05062 -7.85818,-3.69178 -8.89779,-14.0367 -17.2938,-27.7084 -26.178,-41.7551l-4.2368 -6.74202c-7.40378,0 -13.408,-6.00422 -13.408,-13.408 0,-7.40378 6.00422,-13.4077 13.408,-13.4077 7.40378,0 13.4077,6.00397 13.4077,13.4077 0,3.68947 -1.49094,7.03078 -3.90298,9.45536 7.23994,4.61952 14.4115,9.33478 21.6561,13.9305 2.07565,-4.44518 4.19226,-8.86067 6.44301,-13.2124 0.970496,-1.87622 3.0807,-2.7817 5.10925,-2.1929 6.29581,1.82758 12.1603,4.91878 18.102,7.66746 5.28973,-7.90758 10.5567,-15.8234 15.777,-23.7696l0.377856 -0.001024c-4.59571,-2.12659 -7.78573,-6.77811 -7.78573,-12.1741 0,-7.40378 6.00422,-13.408 13.408,-13.408 7.40378,0 13.408,6.00422 13.408,13.408 0,5.39597 -3.19002,10.0475 -7.78573,12.1741l0.377856 0.001024c5.22035,7.94624 10.4873,15.862 15.777,23.7696 5.94176,-2.74867 11.8062,-5.83987 18.102,-7.66746 2.02854,-0.5888 4.13875,0.316672 5.10925,2.1929 2.25075,4.35174 4.36736,8.76723 6.44301,13.2124 7.24454,-4.59571 14.4161,-9.31098 21.6561,-13.9305 -2.41203,-2.42458 -3.90298,-5.76589 -3.90298,-9.45536 0,-7.40378 6.00397,-13.4077 13.4077,-13.4077 7.40378,0 13.408,6.00397 13.408,13.4077 0,7.40378 -6.00422,13.408 -13.408,13.408l-4.2368 6.74202c-8.88422,14.0467 -17.2803,27.7184 -26.178,41.7551 -1.4441,2.64115 -5.21011,3.69178 -7.85818,3.69178 -14.7717,0.048384 -29.5457,0.038144 -44.3192,0.027904zm0 -91.5584c-3.1127,0 -5.63686,2.52416 -5.63686,5.63686 0,3.1127 2.52416,5.63686 5.63686,5.63686 3.1127,0 5.63686,-2.52416 5.63686,-5.63686 0,-3.1127 -2.52416,-5.63686 -5.63686,-5.63686zm0 25.4339c-10.6801,13.7846 -19.2676,29.0752 -29.1909,43.4002 -1.7065,2.55616 -5.21242,1.83808 -7.52922,0.502016 -9.45229,-5.69139 -18.4259,-12.1475 -27.8395,-17.9082 5.98093,9.91309 12.3126,19.6101 18.3521,29.4825 0.81664,1.33453 2.1591,2.08922 3.72378,2.09306 14.1596,0.034816 28.3213,0.05376 42.4837,0.053504 14.1624,0.000256 28.3241,-0.018688 42.4837,-0.053504 1.56467,-0.00384 2.90714,-0.758528 3.72378,-2.09306 6.03955,-9.87238 12.3712,-19.5694 18.3521,-29.4825 -9.41363,5.76077 -18.3872,12.2168 -27.8395,17.9082 -2.3168,1.33606 -5.82272,2.05414 -7.52922,-0.502016 -9.92333,-14.325 -18.5108,-29.6156 -29.1909,-43.4002zm0 73.8245c15.8083,-0.034816 31.6168,-0.084224 47.4235,0.009984 2.22387,-0.24704 4.28595,1.68371 4.31693,3.86893 -0.224,1.67603 -1.01171,3.19718 -1.65274,4.74163 -16.6945,-0.179456 -33.3911,-0.156928 -50.0877,-0.120064 -16.6966,-0.036864 -33.3932,-0.059392 -50.0877,0.120064 -0.641024,-1.54445 -1.42874,-3.0656 -1.65274,-4.74163 0.030976,-2.18522 2.09306,-4.11597 4.31693,-3.86893 15.8067,-0.094208 31.6152,-0.0448 47.4235,-0.009984zm38.8206 -55.7151c-4.11597,1.82221 -8.23194,3.65261 -12.3482,5.49043 2.6025,3.86893 5.15866,7.77677 7.80749,11.6147 3.16621,-2.15475 6.37107,-4.24755 9.54496,-6.40179 -1.50579,-3.6375 -3.2128,-7.19744 -5.00429,-10.7034zm43.7716 -23.2463c-3.11245,0 -5.63686,2.52416 -5.63686,5.63661 0,3.1127 2.52442,5.63686 5.63686,5.63686 3.1127,0 5.63686,-2.52416 5.63686,-5.63686 0,-3.11245 -2.52416,-5.63661 -5.63686,-5.63661zm-121.413 23.2463c4.11597,1.82221 8.23194,3.65261 12.3482,5.49043 -2.6025,3.86893 -5.15866,7.77677 -7.80749,11.6147 -3.16621,-2.15475 -6.37107,-4.24755 -9.54496,-6.40179 1.50579,-3.6375 3.2128,-7.19744 5.00429,-10.7034zm-43.7716 -23.2463c3.11245,0 5.63686,2.52416 5.63686,5.63661 0,3.1127 -2.52442,5.63686 -5.63686,5.63686 -3.1127,0 -5.63686,-2.52416 -5.63686,-5.63686 0,-3.11245 2.52416,-5.63661 5.63686,-5.63661z"/>
 </g>
</svg>
